<?xml version="1.0" encoding="utf-8"?>
<!-- Generator: Adobe Illustrator 15.0.0, SVG Export Plug-In . SVG Version: 6.00 Build 0)  -->
<!DOCTYPE svg PUBLIC "-//W3C//DTD SVG 1.1//EN" "http://www.w3.org/Graphics/SVG/1.1/DTD/svg11.dtd">
<svg version="1.1" id="Revolution" xmlns="http://www.w3.org/2000/svg" xmlns:xlink="http://www.w3.org/1999/xlink" x="0px" y="0px"
	 width="569.087px" height="120.105px" viewBox="0 0 569.087 120.105" enable-background="new 0 0 569.087 120.105"
	 xml:space="preserve">
<g id="Revolution_1_" display="none">
	<g display="inline">
		<path fill-rule="evenodd" clip-rule="evenodd" fill="#121212" d="M231.749,338.31c0-8.019-2.285-13.835-6.852-17.45
			c-4.569-3.614-12.209-5.422-22.922-5.422h-26.125v68.911h15.379v-21.984h10.647l15.281,21.984h18.929l-17.45-24.646
			C227.377,356.483,231.749,349.351,231.749,338.31z M213.215,346.492c-1.907,1.71-5.489,2.562-10.746,2.562H191.23v-20.407h11.535
			c4.929,0,8.38,0.69,10.352,2.07c1.972,1.381,2.958,3.929,2.958,7.641C216.074,342.072,215.12,344.783,213.215,346.492z
			 M264.873,356.449h30.857v-13.112h-30.857v-14.196h34.308v-13.703h-49.687v68.911h50.772v-13.604h-35.393V356.449z
			 M341.375,359.308l-17.548-43.87h-16.661l27.702,68.911h13.014l27.703-68.911h-16.661L341.375,359.308z M484.521,315.438h-15.38
			v68.911h44.759v-13.703h-29.379V315.438z M569.797,353.491c0,5.521-1.266,9.876-3.795,13.062
			c-2.531,3.189-5.965,4.782-10.303,4.782s-7.788-1.593-10.352-4.782c-2.563-3.187-3.845-7.541-3.845-13.062v-38.054h-15.38v38.547
			c0,9.925,2.776,17.582,8.331,22.971c5.553,5.39,12.634,8.084,21.245,8.084c8.609,0,15.676-2.677,21.196-8.035
			c5.521-5.355,8.281-13.028,8.281-23.02v-38.547h-15.38V353.491z M597.4,328.746h19.521v55.603H632.3v-55.603h19.521v-13.309H597.4
			V328.746z M665.029,384.349h15.38v-68.911h-15.38V384.349z M731.574,313.859c-10.188,0-18.766,3.401-25.731,10.204
			c-6.967,6.803-10.45,15.266-10.45,25.386c0,10.122,3.483,18.584,10.45,25.387c6.966,6.802,15.543,10.203,25.731,10.203
			c10.187,0,18.764-3.401,25.73-10.203c6.966-6.803,10.45-15.265,10.45-25.387c0-10.12-3.484-18.583-10.45-25.386
			C750.338,317.261,741.761,313.859,731.574,313.859z M746.165,365.174c-3.943,4.306-8.791,6.457-14.542,6.457
			c-5.752,0-10.598-2.151-14.541-6.457c-3.943-4.304-5.915-9.529-5.915-15.675s1.972-11.387,5.915-15.725s8.789-6.507,14.541-6.507
			c5.751,0,10.599,2.169,14.542,6.507s5.915,9.579,5.915,15.725S750.108,360.87,746.165,365.174z M830.948,315.438v44.363
			l-33.815-44.363h-14.394v68.911h15.38v-43.181l32.829,43.181h15.38v-68.911H830.948z"/>
	</g>
</g>
<g>
	<path d="M39.241,26.059c15.42,0,25.032,6.708,25.032,17.522c0,7.61-4.606,13.517-12.116,15.419
		c9.012,1.702,14.619,8.511,14.619,17.723c0,12.015-10.113,19.425-26.434,19.425H7V26.059H39.241z M22.82,54.295h15.62
		c5.908,0,9.612-2.904,9.612-7.81c0-4.806-3.705-7.51-9.612-7.51H22.82V54.295z M22.82,83.232h15.62
		c7.51,0,12.016-3.104,12.016-8.512c0-5.106-4.506-8.21-12.016-8.21H22.82V83.232z"/>
	<path d="M93.314,82.531l-5.507,13.617H71.487l30.439-70.089h16.321l29.938,70.089h-16.922l-5.507-13.617H93.314z M109.636,42.581
		L98.521,69.814h22.128L109.636,42.581z"/>
	<path d="M208.566,32.968l-6.107,13.117c-7.41-4.406-16.221-7.209-21.828-7.209c-5.307,0-8.912,1.902-8.912,5.708
		c0,12.916,37.348,5.707,37.248,30.938c0,13.719-11.916,21.128-27.435,21.128c-11.515,0-23.03-4.405-30.94-11.114l6.308-12.917
		c7.209,6.408,17.422,10.514,24.832,10.514c6.508,0,10.413-2.403,10.413-6.708c0-13.218-37.348-5.508-37.348-30.339
		c0-12.716,10.914-20.727,27.135-20.727C191.745,25.358,201.557,28.362,208.566,32.968z"/>
	<path d="M237.107,39.176v15.22h33.843v13.116h-33.843v15.52h38.649v13.117h-54.47V26.059h53.368v13.117H237.107z"/>
	<path d="M349.355,37.173l-9.211,11.214c-4.807-5.507-11.717-9.112-18.225-9.112c-12.016,0-21.326,9.312-21.326,21.528
		s9.311,21.627,21.326,21.627c6.309,0,13.217-3.204,18.225-8.21l9.311,10.113c-7.408,7.609-18.123,12.516-28.336,12.516
		c-20.926,0-36.747-15.52-36.747-35.846c0-20.226,16.12-35.445,37.348-35.445C331.832,25.559,342.447,30.064,349.355,37.173z"/>
	<path d="M453.558,82.531l-5.508,13.617h-16.32l30.439-70.089h16.32l29.938,70.089h-16.92L486,82.531H453.558z M469.878,42.581
		l-11.113,27.234h22.127L469.878,42.581z"/>
	<path d="M539.873,39.477v56.672h-15.82V39.477h-21.329V26.059h58.577v13.417H539.873z"/>
	<g>
		<g>
			<defs>
				<rect id="SVGID_1_" x="338.554" y="-0.417" width="116.22" height="116.221"/>
			</defs>
			<clipPath id="SVGID_2_">
				<use xlink:href="#SVGID_1_"  overflow="visible"/>
			</clipPath>
			<g clip-path="url(#SVGID_2_)">
				<defs>
					<rect id="SVGID_3_" x="338.554" y="-0.417" width="116.22" height="116.221"/>
				</defs>
				<clipPath id="SVGID_4_">
					<use xlink:href="#SVGID_3_"  overflow="visible"/>
				</clipPath>
				<g clip-path="url(#SVGID_4_)" enable-background="new    ">
					<g>
						<defs>
							<rect id="SVGID_5_" x="348.795" y="-7.447" width="93.052" height="123.708"/>
						</defs>
						<clipPath id="SVGID_6_">
							<use xlink:href="#SVGID_5_"  overflow="visible"/>
						</clipPath>
					</g>
				</g>
			</g>
			<g clip-path="url(#SVGID_2_)">
				<defs>
					<rect id="SVGID_7_" x="338.554" y="-0.417" width="116.22" height="116.221"/>
				</defs>
				<clipPath id="SVGID_8_">
					<use xlink:href="#SVGID_7_"  overflow="visible"/>
				</clipPath>
			</g>
			<g clip-path="url(#SVGID_2_)">
				<defs>
					<rect id="SVGID_9_" x="338.554" y="-0.417" width="116.22" height="116.221"/>
				</defs>
				<clipPath id="SVGID_10_">
					<use xlink:href="#SVGID_9_"  overflow="visible"/>
				</clipPath>
				<path clip-path="url(#SVGID_10_)" d="M363.182,40.72c-10.127,18.637-3.229,41.954,15.407,52.081
					c18.637,10.127,41.954,3.229,52.082-15.408c10.127-18.636,3.229-41.953-15.409-52.08
					C396.626,15.186,373.309,22.084,363.182,40.72 M421.762,72.121c-7.452,13.714-24.619,18.792-38.332,11.34
					c-13.715-7.453-18.793-24.617-11.34-38.332c7.452-13.713,24.617-18.792,38.332-11.34
					C424.135,41.241,429.213,58.408,421.762,72.121"/>
				<path clip-path="url(#SVGID_10_)" d="M383.501,27.483c-20.737,0-37.547,16.811-37.547,37.547s16.81,37.547,37.547,37.547
					c20.737,0,37.547-16.811,37.547-37.547S404.238,27.483,383.501,27.483 M383.501,99.665c-19.128,0-34.634-15.507-34.634-34.634
					s15.506-34.634,34.634-34.634c19.127,0,34.634,15.506,34.634,34.634S402.629,99.665,383.501,99.665"/>
				<path clip-path="url(#SVGID_10_)" d="M392.564,6.336c-20.737,0-37.547,16.81-37.547,37.547
					c0,20.737,16.811,37.548,37.547,37.548s37.547-16.811,37.547-37.548C430.112,23.146,413.301,6.336,392.564,6.336
					 M392.564,77.115c-18.354,0-33.231-14.878-33.231-33.232c0-18.353,14.878-33.231,33.231-33.231
					c18.353,0,33.231,14.878,33.231,33.231C425.796,62.236,410.917,77.115,392.564,77.115"/>
				<path clip-path="url(#SVGID_10_)" d="M406.807,11.515c-20.737,0-37.547,16.811-37.547,37.547s16.81,37.547,37.547,37.547
					c20.737,0,37.547-16.811,37.547-37.547S427.543,11.515,406.807,11.515 M406.807,84.991c-19.843,0-35.929-16.085-35.929-35.929
					s16.086-35.929,35.929-35.929c19.843,0,35.929,16.086,35.929,35.929S426.649,84.991,406.807,84.991"/>
			</g>
			<g clip-path="url(#SVGID_2_)">
				<defs>
					<rect id="SVGID_11_" x="338.554" y="-0.417" width="116.22" height="116.221"/>
				</defs>
				<clipPath id="SVGID_12_">
					<use xlink:href="#SVGID_11_"  overflow="visible"/>
				</clipPath>
				<g opacity="0.48" clip-path="url(#SVGID_12_)">
					<g>
						<defs>
							<rect id="SVGID_13_" x="241.834" y="-48.659" width="317.649" height="198.531"/>
						</defs>
						<clipPath id="SVGID_14_">
							<use xlink:href="#SVGID_13_"  overflow="visible"/>
						</clipPath>
					</g>
				</g>
			</g>
			<g clip-path="url(#SVGID_2_)">
				<defs>
					<rect id="SVGID_15_" x="338.554" y="-0.417" width="116.22" height="116.221"/>
				</defs>
				<clipPath id="SVGID_16_">
					<use xlink:href="#SVGID_15_"  overflow="visible"/>
				</clipPath>
			</g>
			<g clip-path="url(#SVGID_2_)">
				<defs>
					<rect id="SVGID_17_" x="338.554" y="-0.417" width="116.22" height="116.221"/>
				</defs>
				<clipPath id="SVGID_18_">
					<use xlink:href="#SVGID_17_"  overflow="visible"/>
				</clipPath>
			</g>
			<g clip-path="url(#SVGID_2_)">
				<defs>
					<rect id="SVGID_19_" x="338.554" y="-0.417" width="116.22" height="116.221"/>
				</defs>
				<clipPath id="SVGID_20_">
					<use xlink:href="#SVGID_19_"  overflow="visible"/>
				</clipPath>
			</g>
			<g clip-path="url(#SVGID_2_)">
				<defs>
					<rect id="SVGID_21_" x="338.554" y="-0.417" width="116.22" height="116.221"/>
				</defs>
				<clipPath id="SVGID_22_">
					<use xlink:href="#SVGID_21_"  overflow="visible"/>
				</clipPath>
			</g>
		</g>
	</g>
</g>
</svg>
