<?xml version="1.0" encoding="utf-8"?>
<!-- Generator: Adobe Illustrator 15.0.0, SVG Export Plug-In . SVG Version: 6.00 Build 0)  -->
<!DOCTYPE svg PUBLIC "-//W3C//DTD SVG 1.1//EN" "http://www.w3.org/Graphics/SVG/1.1/DTD/svg11.dtd">
<svg version="1.1" id="Layer_1" xmlns="http://www.w3.org/2000/svg" xmlns:xlink="http://www.w3.org/1999/xlink" x="0px" y="0px"
	 width="3401.57px" height="737.008px" viewBox="0 488.584 3401.57 737.008" enable-background="new 0 488.584 3401.57 737.008"
	 xml:space="preserve">
<g>
	<circle fill="#F5BB60" cx="380.314" cy="857.481" r="362.992"/>
	<circle fill="#E86F32" cx="343.307" cy="820.473" r="326.771"/>
	<circle fill="#E53D42" cx="386.614" cy="777.167" r="283.464"/>
	<circle fill="#BFD141" cx="409.448" cy="800.001" r="260.63"/>
	<circle fill="#6DB64C" cx="390.551" cy="818.899" r="241.732"/>
	<circle fill="#AFDBE7" cx="351.968" cy="781.104" r="203.149"/>
	<circle fill="#57BADF" cx="385.039" cy="747.245" r="170.079"/>
	<circle fill="#02B2D6" cx="406.299" cy="768.505" r="149.606"/>
	
		<radialGradient id="SVGID_1_" cx="-116.6133" cy="1705.7463" r="16.238" gradientTransform="matrix(7.874 0 0 -7.874 1302.825 14220.8193)" gradientUnits="userSpaceOnUse">
		<stop  offset="0" style="stop-color:#797979"/>
		<stop  offset="1" style="stop-color:#4C4C4C"/>
	</radialGradient>
	<circle fill="url(#SVGID_1_)" cx="384.251" cy="789.765" r="127.559"/>
	<circle fill="#231F20" cx="384.251" cy="789.765" r="127.559"/>
	
		<ellipse transform="matrix(0.4094 -0.9124 0.9124 0.4094 -420.931 836.2546)" fill="#FFFFFF" cx="435.445" cy="743.248" rx="39.371" ry="25.198"/>
</g>
<path fill="#382F27" d="M859.842,718.112c0-2.362,1.574-3.938,4.724-3.938h114.173c65.354,0,96.063,29.922,96.063,75.591
	c0,32.283-16.536,50.394-35.433,59.843v0.787c18.896,6.299,40.944,29.134,40.944,63.779c0,56.693-38.583,83.465-105.512,83.465
	H864.565c-2.362,0-4.724-1.575-4.724-3.938V718.112z M977.951,832.284c26.771,0,44.095-14.961,44.095-37.008
	c0-22.835-16.535-37.795-44.095-37.795h-61.417c-1.575,0-2.362,0.787-2.362,2.362v70.078c0,1.575,0.787,2.362,2.362,2.362H977.951z
	 M916.534,955.119h64.567c29.921,0,46.456-15.748,46.456-39.37s-16.535-39.37-46.456-39.37h-64.567
	c-1.575,0-2.362,0.787-2.362,2.362v74.016C913.385,954.331,914.172,955.119,916.534,955.119z"/>
<path fill="#382F27" d="M1118.109,998.426c-2.363,0-4.725-1.574-4.725-3.937V800.788c0-2.362,1.574-3.937,4.725-3.937h41.731
	c2.362,0,4.725,1.574,4.725,3.937v17.323h0.788c10.235-15.748,29.133-25.984,56.692-25.984c17.323,0,34.646,6.299,45.669,16.535
	c2.362,2.362,2.362,3.938,0.787,5.512l-23.621,28.347c-1.575,2.362-3.938,2.362-6.3,0.787c-10.236-5.512-20.472-9.448-32.283-9.448
	c-28.347,0-40.944,18.897-40.944,51.181v109.448c0,2.362-1.575,3.938-4.725,3.938H1118.109L1118.109,998.426z"/>
<path fill="#382F27" d="M1275.589,947.245c-4.725-14.174-7.087-27.56-7.087-49.606s2.362-35.434,7.087-49.606
	c12.599-35.433,45.669-55.905,89.764-55.905s77.165,20.473,89.764,55.905c4.725,14.173,7.087,27.56,7.087,49.606
	s-2.363,35.433-7.087,49.606c-12.599,35.433-45.669,55.905-89.764,55.905S1288.188,982.678,1275.589,947.245z M1406.297,934.647
	c3.938-10.236,4.725-19.686,4.725-37.008c0-17.323-0.787-25.984-4.725-37.008c-6.299-16.535-20.472-25.984-40.944-25.984
	s-34.646,9.449-40.944,25.984c-3.938,11.023-4.725,19.685-4.725,37.008c0,17.322,0.787,26.771,4.725,37.008
	c6.299,16.535,20.473,25.984,40.944,25.984C1385.825,961.418,1399.998,951.182,1406.297,934.647z"/>
<path fill="#382F27" d="M1681.888,998.426c-2.362,0-4.725-1.574-5.512-3.937l-41.732-129.134h-0.788l-42.52,129.134
	c-0.787,2.362-2.361,3.937-5.512,3.937h-37.008c-2.361,0-4.724-1.574-5.512-3.937l-68.504-192.913
	c-0.787-2.362,0.788-3.938,3.15-3.938h43.307c3.149,0,4.725,1.575,5.512,3.938l41.732,133.07h0.787l41.732-133.07
	c0.787-2.362,3.15-3.938,5.512-3.938h32.283c2.363,0,4.725,1.575,5.512,3.938l44.096,133.07h0.787l40.157-133.07
	c0.787-3.15,2.362-3.938,5.512-3.938h43.308c2.361,0,3.937,1.575,3.148,3.938l-66.929,192.125c-0.788,2.362-2.362,3.938-5.512,3.938
	h-37.008V998.426z"/>
<path fill="#382F27" d="M1802.359,970.867c-1.574-1.575-1.574-3.938,0-5.512l25.984-25.197c1.575-1.575,4.725-1.575,6.299,0
	c15.748,13.386,40.945,22.835,63.78,22.835c26.771,0,40.157-10.236,40.157-23.622c0-11.812-7.874-19.686-36.221-22.048
	l-23.621-2.362c-44.096-3.937-66.93-25.196-66.93-59.055c0-38.582,29.922-63.779,84.252-63.779c33.858,0,62.205,10.236,81.89,24.409
	c2.362,1.575,2.362,3.938,0.787,5.512l-22.047,24.409c-1.575,2.362-3.937,2.362-6.3,0.788
	c-13.385-8.661-35.433-16.536-56.692-16.536c-22.048,0-33.071,8.662-33.071,21.261c0,11.811,7.875,18.897,35.434,21.26l23.622,2.362
	c45.669,3.937,67.716,25.983,67.716,59.055c0,40.157-31.496,68.504-91.338,68.504
	C1851.179,1003.151,1820.47,986.615,1802.359,970.867z"/>
<path fill="#382F27" d="M2021.258,946.457c-4.725-12.598-7.875-28.346-7.875-49.605c0-21.261,2.362-37.008,7.087-49.606
	c12.599-35.434,45.669-55.905,88.977-55.905c44.882,0,77.165,21.26,89.763,55.905c4.725,14.173,7.087,28.346,7.087,60.63
	c0,2.362-1.575,3.937-4.724,3.937h-134.646c-1.574,0-2.361,0.787-2.361,2.362c0,5.512,1.574,11.023,3.149,15.748
	c7.086,19.686,24.409,30.709,48.818,30.709s40.157-8.662,51.182-18.898c2.362-2.361,4.724-2.361,7.086-0.787l26.772,22.048
	c2.361,1.574,2.361,3.937,0.787,5.512c-18.897,19.685-49.606,34.646-89.764,34.646
	C2066.139,1003.151,2033.855,981.891,2021.258,946.457z M2153.541,857.482c-5.513-16.536-22.048-25.984-42.521-25.984
	c-20.472,0-37.008,9.448-43.307,25.984c-1.575,4.724-2.362,10.236-2.362,17.322c0,1.575,0.787,2.362,2.362,2.362h85.827
	c1.574,0,2.361-0.787,2.361-2.362C2155.902,867.717,2155.115,862.993,2153.541,857.482z"/>
<path fill="#382F27" d="M2244.879,998.426c-2.362,0-4.725-1.574-4.725-3.937V800.788c0-2.362,1.575-3.937,4.725-3.937h41.732
	c2.361,0,4.725,1.574,4.725,3.937v17.323h0.787c10.236-15.748,29.134-25.984,56.693-25.984c17.322,0,34.645,6.299,45.669,16.535
	c2.362,2.362,2.362,3.938,0.787,5.512l-23.622,28.347c-1.574,2.362-3.938,2.362-6.299,0.787
	c-10.236-5.512-20.473-9.448-32.283-9.448c-28.347,0-40.945,18.897-40.945,51.181v109.448c0,2.362-1.575,3.938-4.725,3.938H2244.879
	L2244.879,998.426z"/>
<path fill="#382F27" d="M2401.571,965.356c-1.574-1.575-2.362-3.938-0.787-6.3l28.347-29.921c1.574-2.362,4.725-2.362,6.299-0.788
	c19.686,14.961,49.606,29.922,83.465,29.922c37.008,0,58.268-17.323,58.268-40.945c0-20.472-13.387-33.858-55.906-39.37
	l-16.535-2.361c-59.055-7.875-92.913-33.858-92.913-81.103c0-51.182,40.945-85.827,103.937-85.827
	c38.583,0,74.804,11.023,99.213,28.347c2.362,1.575,2.362,3.149,0.787,5.512l-22.047,30.709c-1.574,2.362-3.937,2.362-6.299,1.574
	c-25.197-14.96-48.031-22.047-74.016-22.047c-31.496,0-48.031,15.748-48.031,37.795c0,19.686,14.961,33.071,56.692,38.583
	l16.536,2.362c59.055,7.874,92.126,33.07,92.126,82.677c0,50.394-39.37,88.189-115.748,88.189
	C2470.076,1003.151,2425.981,985.827,2401.571,965.356z"/>
<path fill="#382F27" d="M2724.406,1001.575c-44.095,0-60.631-19.685-60.631-59.055V837.009c0-1.575-0.787-2.362-2.361-2.362h-14.174
	c-2.361,0-4.725-1.575-4.725-3.938v-28.346c0-2.362,1.575-3.938,4.725-3.938h14.174c1.574,0,2.361-0.787,2.361-2.362v-55.117
	c0-2.362,1.575-3.938,4.725-3.938h41.732c2.362,0,4.725,1.575,4.725,3.938v55.117c0,1.575,0.787,2.362,2.362,2.362h29.134
	c2.362,0,4.725,1.575,4.725,3.938v28.346c0,2.362-1.575,3.938-4.725,3.938h-29.134c-1.575,0-2.362,0.787-2.362,2.362v104.725
	c0,14.173,6.299,18.897,20.473,18.897h11.023c2.362,0,4.725,1.574,4.725,3.937v33.071c0,2.362-1.575,3.937-4.725,3.937H2724.406
	L2724.406,1001.575z"/>
<path fill="#382F27" d="M2916.531,998.426c-2.361,0-4.725-1.574-4.725-3.937v-14.961h-0.787
	c-10.236,14.173-30.709,23.622-61.417,23.622c-40.157,0-73.229-18.897-73.229-61.417c0-44.095,33.858-63.78,87.401-63.78h44.095
	c1.575,0,2.362-0.787,2.362-2.361v-9.449c0-22.835-11.811-33.071-48.031-33.071c-24.41,0-39.37,6.3-49.606,14.174
	c-2.362,1.574-4.725,1.574-6.299-0.787l-16.536-27.56c-1.574-2.362-0.787-3.937,0.788-5.512
	c17.323-11.811,41.731-19.685,77.165-19.685c66.142,0,90.551,21.26,90.551,70.078v131.496c0,2.362-1.574,3.937-4.725,3.937h-37.008
	V998.426z M2911.02,930.709v-15.748c0-1.574-0.787-2.361-2.361-2.361h-36.221c-32.283,0-47.244,8.661-47.244,27.559
	c0,16.535,13.386,25.196,37.795,25.196C2893.697,964.568,2911.02,953.544,2911.02,930.709z"/>
<path fill="#382F27" d="M2998.421,947.245c-4.724-12.599-7.087-28.347-7.087-49.606s2.363-37.008,7.087-49.606
	c12.599-36.221,46.457-55.905,89.764-55.905c32.284,0,58.268,11.811,75.591,31.496c1.574,1.574,1.574,3.937-0.787,5.512
	l-28.347,22.835c-2.362,1.574-4.725,1.574-6.3-0.788c-11.023-11.023-22.047-17.322-40.157-17.322
	c-19.685,0-34.646,8.661-40.944,25.984c-3.938,10.236-4.725,22.047-4.725,37.008c0,14.96,0.787,27.559,4.725,37.795
	c6.299,17.322,21.26,25.984,40.944,25.984c18.11,0,29.134-6.3,40.157-17.323c1.575-2.362,3.938-2.362,6.3-0.787l28.347,22.835
	c2.361,1.574,1.574,3.937,0.787,5.512c-17.323,18.897-43.307,30.708-75.591,30.708
	C3044.878,1003.151,3011.02,983.465,2998.421,947.245z"/>
<path fill="#382F27" d="M3340.153,998.426c-3.149,0-5.512-1.574-7.087-3.937l-55.118-84.252l-29.134,31.496v52.756
	c0,2.362-1.574,3.937-4.725,3.937h-41.731c-2.362,0-4.725-1.574-4.725-3.937V718.112c0-2.362,1.575-3.938,4.725-3.938h41.731
	c2.362,0,4.725,1.575,4.725,3.938v163.779l74.803-81.103c2.362-3.149,4.725-3.937,8.662-3.937h46.457
	c2.361,0,3.937,2.362,1.574,3.937l-69.291,73.229l79.527,119.685c1.575,1.575,0.787,3.938-2.362,3.938h-48.031V998.426z"/>
</svg>
